<svg width="1200" height="630" xmlns="http://www.w3.org/2000/svg">
  <!-- IssueFlow OG Image - VibeTensor Private Limited -->
  <defs>
    <!-- Background gradient -->
    <linearGradient id="bgGradient" x1="0%" y1="0%" x2="100%" y2="100%">
      <stop offset="0%" style="stop-color:#0f172a"/>
      <stop offset="50%" style="stop-color:#1e293b"/>
      <stop offset="100%" style="stop-color:#0f172a"/>
    </linearGradient>
  </defs>

  <!-- Background -->
  <rect width="1200" height="630" fill="url(#bgGradient)"/>

  <!-- Decorative teal orbs -->
  <circle cx="150" cy="150" r="200" fill="#0d9488" opacity="0.08"/>
  <circle cx="1100" cy="500" r="180" fill="#0d9488" opacity="0.06"/>

  <!-- Logo Mark - Issues flowing through pipeline -->
  <g transform="translate(100, 120) scale(2.5)">
    <!-- Background circle -->
    <circle cx="64" cy="64" r="56" fill="#0d9488"/>
    <!-- Flowing S-curve path -->
    <path d="M 20 64 Q 44 30, 64 64 Q 84 98, 108 64" stroke="#ffffff" stroke-width="6" fill="none" stroke-linecap="round"/>
    <!-- Three issue nodes -->
    <circle cx="32" cy="50" r="10" fill="#ffffff"/>
    <circle cx="64" cy="64" r="12" fill="#ffffff"/>
    <circle cx="96" cy="78" r="10" fill="#ffffff"/>
    <!-- Checkmarks inside -->
    <path d="M 27 50 L 30 53 L 37 46" stroke="#0d9488" stroke-width="3" fill="none" stroke-linecap="round" stroke-linejoin="round"/>
    <path d="M 58 64 L 62 68 L 70 58" stroke="#0d9488" stroke-width="3" fill="none" stroke-linecap="round" stroke-linejoin="round"/>
    <path d="M 91 78 L 94 81 L 101 74" stroke="#0d9488" stroke-width="3" fill="none" stroke-linecap="round" stroke-linejoin="round"/>
  </g>

  <!-- Title -->
  <text x="440" y="240" font-family="system-ui, -apple-system, 'Segoe UI', sans-serif" font-size="80" font-weight="800" fill="#ffffff">
    IssueFlow
  </text>

  <!-- Tagline -->
  <text x="440" y="310" font-family="system-ui, -apple-system, 'Segoe UI', sans-serif" font-size="32" font-weight="500" fill="#94a3b8">
    Find your next open source contribution
  </text>

  <!-- Features -->
  <text x="100" y="480" font-family="system-ui, -apple-system, 'Segoe UI', sans-serif" font-size="24" fill="#64748b">
    Unassigned issues  |  No pull requests  |  Ready to contribute
  </text>

  <!-- Company attribution -->
  <text x="100" y="540" font-family="system-ui, -apple-system, 'Segoe UI', sans-serif" font-size="18" fill="#475569">
    A product of VibeTensor Private Limited
  </text>

  <!-- URL -->
  <text x="100" y="590" font-family="ui-monospace, 'SF Mono', monospace" font-size="20" fill="#0d9488">
    issueflow.pages.dev
  </text>
</svg>
